<?xml version="1.0" encoding="utf-8"?>
<!-- Generator: Adobe Illustrator 21.0.0, SVG Export Plug-In . SVG Version: 6.00 Build 0)  -->
<svg version="1.1" id="Layer_1" xmlns="http://www.w3.org/2000/svg" xmlns:xlink="http://www.w3.org/1999/xlink" x="0px" y="0px"
	 width="100px" height="100px" viewBox="0 0 100 100" enable-background="new 0 0 100 100" xml:space="preserve">
<g>
	<g>
		<path fill="#FF9E24" d="M43.6,50L0.7,84.8c-0.4-0.4-0.7-1-0.7-1.7V16.9c0-0.6,0.3-1.2,0.7-1.7L43.6,50z"/>
		<path fill="#FF9E24" d="M100,16.9v66.2c0,0.6-0.3,1.2-0.7,1.7L56.4,50l42.9-34.8C99.7,15.7,100,16.2,100,16.9z"/>
	</g>
	<path fill="#FFE1D6" d="M97.6,14.5H2.4c-0.7,0-1.3,0.3-1.7,0.7L50,66.6l49.3-51.4C98.9,14.8,98.3,14.5,97.6,14.5z"/>
	<path fill="#FFB14D" d="M65.9,50l33.4,34.8c-0.4,0.4-1,0.7-1.7,0.7H2.4c-0.7,0-1.3-0.3-1.7-0.7L34.1,50L50,66.6L65.9,50z"/>
</g>
</svg>
