<svg xmlns="http://www.w3.org/2000/svg" viewBox="0 0 45 14"><path fill="#CC2131" fill-rule="evenodd" d="M37.124 7.464h3.008l.486 1.226H36.56l-.648 1.408H34.12L38.564.821h1.24l4.444 9.277h-1.791l-3.273-7.162-2.06 4.528zM3.2 7.533h3.007l.486 1.226H2.634l-.648 1.408H.194L4.639.89h1.24l4.443 9.277h-1.79L5.257 3.004l-2.06 4.529zm16.899 0h3.007l.487 1.226h-4.058l-.648 1.408h-1.792L21.538.89h1.24l4.444 9.277h-1.79l-3.275-7.163-2.059 4.529zM8.649.86l4.442 9.277h1.241L18.775.86h-1.79L13.711 8.16 10.438.86H8.649zm21.055 12.76L35.837.86h-1.788l-3.41 7.436L27.5.86h-1.79l4.04 9.277-1.76 3.483h1.714z"/></svg>