<svg xmlns="http://www.w3.org/2000/svg" viewBox="0 0 44 44"><g fill="none" fill-rule="nonzero"><path fill="#A5DBE8" d="M14.262 33.759c.351-.156.707-.3 1.066-.435a19.384 19.384 0 0 1 2.792-.829c.712-.15 1.43-.262 2.155-.333a67.343 67.343 0 0 1-1.342 3.81c.02.246.033.492.038.738a15.63 15.63 0 0 1 6.058 0c.005-.246.018-.492.038-.737a67.208 67.208 0 0 1-1.342-3.81c.725.07 1.444.181 2.155.332a19.378 19.378 0 0 1 2.792.829 19.09 19.09 0 0 1 7.696 5.329C41.039 34.619 44 28.657 44 22 44 9.85 34.15 0 22 0S0 9.85 0 22c0 6.657 2.96 12.618 7.632 16.653a19.091 19.091 0 0 1 6.63-4.894"/><path fill="#525353" d="M29.738 33.76l1.366 4.695.387.019c.252 0 .429.066.429.317 0 .418.021.888.061 1.298.34.289.755.615 1.07.931a22.052 22.052 0 0 0 3.317-2.367 19.09 19.09 0 0 0-6.63-4.894m-2.67-.047l1.604-.388a19.352 19.352 0 0 0-2.792-.829 19.387 19.387 0 0 0-2.155-.333c.41 1.284.857 2.554 1.342 3.81-.02.246-.033.492-.038.738 1.136.224 2.253.613 3.286 1.07l-1.247-4.068"/><path fill="#000" d="M10.95 41.02c.255.15.513.294.775.433.092-.44.239-1.052.283-1.505-.34.289-.744.756-1.058 1.072m17.338-3.28a15.438 15.438 0 0 0-3.26-1.03 15.632 15.632 0 0 0-6.057 0c-1.136.224-2.321.563-3.354 1.02l-.11.684h12.986l-.205-.675"/><path fill="#525353" d="M11.968 40.078c.04-.41.07-.776.07-1.194 0-.251.172-.412.423-.412l.412-.014 1.389-4.699a19.091 19.091 0 0 0-6.63 4.894c1.03.89 2.141 1.682 3.318 2.367.314-.317.641-.62.981-.909"/><path fill="#000" d="M32.15 40.914c.088.447.109.536.125.54.261-.14.52-.284.775-.434-.317-.32-.648-.627-.992-.919l.091.813"/><path fill="#AA9678" d="M28.288 37.74l.205.674h2.656l-1.41-4.655c-.352-.155-.708-.3-1.067-.435l-1.604.388 1.22 4.027"/><path fill="#C4B6A1" d="M12.897 39.354l.042-.03h-.04l-.002.03"/><path fill="#AA9678" d="M31.1 39.325h-.04l.043.03-.002-.03"/><path fill="#AA9678" d="M31.055 39.257l-9.074.01L22 44c3.377 0 6.575-.763 9.435-2.123-.187-.82-.206-1.703-.236-2.563a1.882 1.882 0 0 0-.144-.057"/><path fill="#C4B6A1" d="M21.985 39.287s-9.124-.012-9.138-.002c-.03.86-.207 1.88-.282 2.592A21.908 21.908 0 0 0 22 44l.005-4.698-.02-.015"/><path fill="#786453" d="M22 38.87v.455z"/><path fill="#AA9678" d="M28.805 35.778l.005.014-.005-.014s-.223-.177-.506-.503c.283.326.506.503.506.503"/><path fill="#BBBCBD" d="M36.413 22.2v-.006.006"/><path fill="#676A6A" d="M36.388 21.857c.001.006.003.011.003.017l.003.01v.002c.01.084.014.172.016.26l.003.048v.012c0 .018-.003.034-.003.052-.002.085-.007.17-.016.255v.001l-.003.013-.003.019a2.36 2.36 0 0 1-.05.26v.002l.003-.004.001-.004.576-.602-.58-.608v.001c.021.085.038.174.05.266"/><path fill="#000" d="M36.388 22.546l.006-.033c.01-.082.014-.169.016-.255 0-.02.003-.038.003-.058l-.003-.054a2.563 2.563 0 0 0-.016-.26l-.006-.029a2.331 2.331 0 0 0-.05-.266c-.008-.03-.018-.055-.027-.084a1.701 1.701 0 0 0-.207-.45 1.368 1.368 0 0 0-.106-.138.892.892 0 0 0-.114-.106c-.015-.011-.03-.02-.046-.03a.647.647 0 0 0-.153-.073.534.534 0 0 0-.157-.027.535.535 0 0 0-.158.027.641.641 0 0 0-.153.074c-.015.01-.031.018-.046.029a.908.908 0 0 0-.22.244 1.696 1.696 0 0 0-.207.45l-.006.02c-.023.08-.041.163-.056.249-.005.026-.01.05-.014.078-.014.095-.021.195-.023.297l-.002.041h.003c0 .839.397 1.518.886 1.518a.55.55 0 0 0 .242-.06.717.717 0 0 0 .13-.082c.017-.014.033-.03.049-.045a1.298 1.298 0 0 0 .182-.224c.014-.022.027-.047.04-.072.025-.045.049-.093.07-.143l.023-.055a2.017 2.017 0 0 0 .12-.483zm-.829-.548c-.183 0-.332-.255-.332-.57 0-.313.149-.568.332-.568.184 0 .332.255.332.569 0 .314-.148.569-.332.569z"/><path fill="#FFF" d="M35.56 20.86c-.184 0-.333.255-.333.569 0 .314.149.569.332.569.184 0 .332-.255.332-.57 0-.313-.148-.568-.332-.568"/><path fill="#909393" d="M34.744 21.507a1.696 1.696 0 0 1 .242-.5.895.895 0 0 1 .185-.194c.015-.011.031-.02.046-.03a.634.634 0 0 1 .153-.073.523.523 0 0 1 .158-.027c.054 0 .106.01.157.027a.647.647 0 0 1 .153.074c.015.01.031.018.046.03.04.03.078.065.114.105.038.043.073.09.106.137.084.127.155.279.207.451l-.783-3.588-.784 3.588"/><path fill="#000" d="M25.145 22.166a2.133 2.133 0 0 0-.014-.213v-.003a2.1 2.1 0 0 0-.035-.204l-.001-.006a2.065 2.065 0 0 0-.054-.194l-.002-.005a1.966 1.966 0 0 0-.072-.187l-.002-.004a2.083 2.083 0 0 0-1.107-1.072l-.006-.002a2.056 2.056 0 0 0-.37-.112c-.004 0-.007 0-.01-.002a2.06 2.06 0 0 0-.789 0l-.013.002a2.061 2.061 0 0 0-.364.108l-.01.004a2.054 2.054 0 0 0-.638.41l-.002.007-.008.001a2.1 2.1 0 0 0-.376.48l-.004.007c-.031.054-.059.111-.085.169l-.009.018a2.014 2.014 0 0 0-.062.165c-.004.01-.009.021-.012.032-.017.052-.03.105-.043.159l-.011.045a2.161 2.161 0 0 0-.026.162c-.002.016-.006.032-.007.05-.022.205-.012.413.028.616l.001.008c.026.13.064.254.113.374l.002.005a2.08 2.08 0 0 0 .904 1.02l.002.001c.056.031.114.06.172.086l.015.007c.054.023.11.044.167.063l.028.01c.053.017.107.03.16.043l.044.011c.052.01.106.018.16.025l.05.008a2.068 2.068 0 0 0 1.934-.903c.23-.342.354-.746.354-1.159v-.014l-.002-.016zm-2.071-.242a.779.779 0 1 1 0-1.558.779.779 0 0 1 0 1.558z"/><path fill="#FFF" d="M23.074 20.366a.779.779 0 1 0 0 1.557.779.779 0 0 0 0-1.557"/><path fill="#BBBCBD" d="M21.648 20.694l.008-.001.002-.007 1.428-4.366v-1.034a12.167 12.167 0 0 0-2.45-.252c-.28 0-.556.012-.832.03l-.12.009a12.265 12.265 0 0 0-4.15 1.078 13.27 13.27 0 0 0-3.098 1.985l-.002.001c-.25.215-.492.438-.727.67l-.132.13c-.221.223-.436.453-.642.69l-.134.157c-.208.245-.409.496-.601.753l-.047.066c-.183.25-.358.505-.525.765-.033.05-.067.1-.1.152a16.06 16.06 0 0 0-.387.658h6.504l6.005-1.484"/><path fill="#E3DDDB" d="M27.138 20.203a19.55 19.55 0 0 0 .06-1.741v-.156a27.56 27.56 0 0 0-.05-1.387l-.005-.003-.002-.003c-.171-.099-.343-.197-.516-.295l-.012-.007-.134-.076-.003-.001-.093-.053-.018-.01a12.79 12.79 0 0 0-.982-.466c-.74-.313-1.736-.586-2.297-.719v1.034l1.415 4.373.001.003a2.043 2.043 0 0 1 .463.654l.002.004c.027.061.051.123.072.187l.002.005c.021.063.04.128.054.194l.001.006a2.1 2.1 0 0 1 .035.204v.003c.008.07.013.141.014.213l.005.012h1.733c.116-.636.2-1.277.25-1.922l.005-.053"/><path fill="#FCB03F" d="M29.404 18.657l-.003.006.003-.006"/><path fill="#909393" d="M21.658 20.686a2.111 2.111 0 0 1 .638-.41l.01-.004c.118-.047.24-.084.364-.108l.013-.003a2.074 2.074 0 0 1 .789.001l.01.002a2.056 2.056 0 0 1 1.02.532l-.001-.003-1.415-4.373-1.428 4.366"/><path fill="#676A6A" d="M21.155 22.979a2.042 2.042 0 0 1-.113-.374l-.001-.008c-.04-.203-.05-.411-.028-.617.001-.017.005-.033.007-.05.007-.054.015-.108.026-.16l.011-.046c.013-.054.026-.107.043-.16l.012-.031c.019-.056.039-.111.062-.165l.01-.018c.025-.058.053-.115.084-.169l.004-.006a2.1 2.1 0 0 1 .376-.48l-6.005 1.483h-.012l5.948 1.452a2.08 2.08 0 0 1-.422-.646l-.002-.005"/><path fill="#E3DDDB" d="M34.668 21.854c.003-.027.01-.052.014-.078.015-.086.033-.17.056-.248.002-.01.003-.02.006-.028l.784-3.588v-2.046c-.64-.529-1.326-.818-2.04-.818-.902 0-1.743.498-2.372 1.113-.688.674-1.22 1.52-1.65 2.375l-.06.117c.133.115.264.231.393.35.293.268.58.542.862.821.132.13.261.263.391.395.137.14.275.28.41.422a46.637 46.637 0 0 1 1.345 1.48h.001l.067.072h1.767c0-.015.003-.028.003-.042.002-.102.009-.202.023-.297"/><path fill="#525353" d="M8.074 24.436l.016-.04c.237-.615.51-1.216.82-1.8.047-.09.094-.181.143-.271.027-.05.058-.097.086-.147.126-.222.252-.443.388-.658.032-.052.066-.101.099-.152.167-.26.342-.515.525-.765.016-.021.03-.044.047-.066.192-.257.393-.508.601-.753l.134-.157c.206-.237.42-.467.642-.69l.132-.13c.235-.232.477-.455.727-.67l.002-.001c.988-3.311 4.18-5.346 7.759-5.346 1.44 0 2.873.415 4.1 1.166 1.26.77 2.118 1.523 2.784 2.838l.01.02c.017.033.036.065.052.099l.002.003.004.003c.56.346 1.093.734 1.595 1.16.17.142.335.288.497.438.054.05.11.096.162.146l.003-.006a.03.03 0 0 1 .002-.004l.055-.112c.504-3.183 2.106-4.918 3.762-4.918 1.248 0 2.155.744 2.84 2.747l.008.022.001.002c.202.22.391.453.565.696l.011.014c.01.03.018.06.028.088l-.026-.104c-2.06-6.099-7.828-10.49-14.622-10.49-8.522 0-15.43 6.908-15.43 15.43 0 1.68.269 3.297.767 4.802l.002-.009c.176-.811.412-1.609.707-2.385"/><path fill="#FFF" d="M36.88 22.199l-.538.602v.003c-.021.08-.046.154-.074.225l-.023.055a1.57 1.57 0 0 1-.07.143c-.013.025-.026.05-.04.072a1.298 1.298 0 0 1-.182.224c-.016.015-.032.031-.049.045a.717.717 0 0 1-.13.082.55.55 0 0 1-.242.06c-.49 0-.886-.68-.886-1.518H32.87v.002c.334.386.663.776.986 1.17.31.38.617.763.92 1.149l.045.056c.287.367.571.735.853 1.105l.082.108c.3.394.597.79.893 1.186a15.4 15.4 0 0 0 .809-4.776l-.5-.018-.078.025"/><path fill="#000" d="M19.684 15.073l.12-.009c.277-.02.555-.03.832-.03.837 0 1.654.09 2.45.252.56.133 1.557.406 2.297.719.31.13.615.274.914.43l.068.036.018.01.093.053.003.001.134.076.012.007.481.275.02.012.015.008c-.016-.034-.035-.066-.052-.099l-.01-.02a8.033 8.033 0 0 0-2.952-3.213 7.907 7.907 0 0 0-4.1-1.166c-3.578 0-6.603 2.41-7.591 5.72a13.27 13.27 0 0 1 3.097-1.984 12.265 12.265 0 0 1 4.151-1.078"/><path fill="#BBBCBD" d="M36.648 17.104l-.011-.014a7.483 7.483 0 0 0-.565-.696l-.005-.006a6.27 6.27 0 0 0-.266-.272c-.034-.033-.069-.061-.103-.092-.057-.051-.113-.105-.17-.152v2.047l.783 3.589c.009.027.02.053.027.082l.542.609.006-.007h.568c0-.052.004-.104.004-.157a15.4 15.4 0 0 0-.782-4.843l-.028-.088"/><path fill="#000" d="M31.116 16.161c.629-.615 1.47-1.113 2.372-1.113.714 0 1.4.29 2.04.818v.007c.057.046.113.1.17.15.034.032.069.06.103.093.091.088.18.179.266.272l.005.006-.001-.002-.007-.022c-.686-2.003-1.791-3.305-3.04-3.305-1.655 0-3.06 2.293-3.563 5.476l.005-.005c.43-.854.962-1.701 1.65-2.375m-2.238 19.56s-.223-.176-.506-.502a5.118 5.118 0 0 1-.475-.637c-.107-.17-.192-.375-.286-.58-.11-.235-.11-.392-.172-.611a4.326 4.326 0 0 1-.162-1.305 4.758 4.758 0 0 1 .14-.973c.125-.499.34-1.03.677-1.591l.086-.192c.11-.184.134-.176.239-.352 1.472-2.484 2.266-4.363 1.877-7.255a23.07 23.07 0 0 0-.145-.886c-.034.213-.07.426-.107.64-.015.065-.055.137-.07.182-.64 1.892-1.646 3.284-3.094 4.856a39.51 39.51 0 0 1-.612.647 78.59 78.59 0 0 1-1.118 1.133l-.48.475c-.149.148-.335.464-.556.697-.137.383-.293.815-.424 1.27-.06-.023-.116-.043-.176-.067-2.814-1.088-4.697-2.542-4.697-2.542s1.45 1.887 3.89 3.659c.225.162.458.313.698.451-.1 1.595.603 3.125 3.778 3.582a6.445 6.445 0 0 0 1.64.01c-.006-.016.03-.015.028-.024-.003-.01.03-.034.03-.034"/><path fill="#9F2254" d="M27.18 31.618c2.819.455 6.99.38 11.32-1.647.104-.05.22.08.324.028 0 0-2.96 3.023-6.494 4.732-.104.05-.206.103-.31.15-.341.156-.689.292-1.037.418a9.72 9.72 0 0 1-2.065.518l-.095.014a4.259 4.259 0 0 1-.013-.04l-.005-.013s-.223-.177-.506-.503a5.022 5.022 0 0 1-.78-1.198 4.519 4.519 0 0 1-.245-.659 4.249 4.249 0 0 1-.118-1.79l.024-.01"/><path fill="#FCB03F" d="M25.16 28.41c.377-.375.75-.752 1.118-1.133.207-.214.41-.43.613-.648 1.448-1.571 2.51-3.042 3.15-4.935.015-.044.03-.104.045-.17l.007-.03c.015-.072.03-.15.044-.239.006-.06.197-.184.202-.24-.16-.825-.53-1.691-.933-2.352a.149.149 0 0 1 .003.008l-.008-.008c-.053-.05-.108-.097-.162-.146-.162-.15-.328-.296-.497-.439a13.284 13.284 0 0 0-1.595-1.16c.028.464.046.926.051 1.388v.156c0 .179 0 .358-.003.538a21.652 21.652 0 0 1-.057 1.203l-.004.053c-.051.645-.135 1.286-.25 1.922l-.204.962c-.425 1.724-1.289 3.287-1.999 4.9-.188.429-.366.861-.523 1.302l-.044.125c.186-.197.375-.391.567-.583l.48-.475"/><path fill="#525353" d="M15.847 37.677c1.032-.457 1.988-.743 3.124-.967a12.643 12.643 0 0 0-.038-.737 67.343 67.343 0 0 0 1.342-3.81c-.724.07-1.443.181-2.155.332a19.363 19.363 0 0 0-2.792.829l1.604.388-1.29 4.05.205-.085"/><path fill="#DF0067" d="M35.674 25.674c-.282-.37-.566-.738-.853-1.105l-.045-.056c-.306-.39-.617-.778-.931-1.162-.32-.39-.645-.776-.974-1.157l-.063-.073a46.637 46.637 0 0 0-1.345-1.48 38.07 38.07 0 0 0-.411-.422c-.13-.132-.259-.265-.39-.395-.283-.279-.57-.553-.863-.821-.13-.119-.26-.235-.393-.35a.03.03 0 0 0-.002.004c.279.801.597 1.613.756 2.448.042.218.076.429.104.636.388 2.892-.538 4.78-2.01 7.264l-.325.544a5.867 5.867 0 0 0-.677 1.592c-.04.16-.072.323-.096.488 2.887.465 7.227.552 11.668-1.63 0 0-.871-1.28-2.182-3.04-.293-.393-.588-.786-.886-1.177l-.082-.108"/><path fill="#AA9678" d="M15.489 38.487l1.443-4.775-1.603-.388c-.36.135-.716.279-1.067.435l-1.43 4.728 1.596.025 1.06-.025"/><path fill="#FFF" d="M16.503 36.421c.141.054.285.103.428.153 1.638.575 3.361.868 5.097.867a15.38 15.38 0 0 0 5.763-1.116c.094-.038.186-.08.28-.12.15-.064.3-.13.45-.2.133-.061.266-.122.397-.188l-.095.014a6.445 6.445 0 0 1-1.64-.011c-3.175-.457-3.878-1.987-3.778-3.582a7.917 7.917 0 0 1-.697-.451c-2.442-1.772-3.891-3.659-3.891-3.659s1.883 1.454 4.697 2.542c.06.024.117.044.176.066.131-.454.287-.886.424-1.27l.044-.124c.157-.44.335-.873.523-1.301.71-1.614 1.574-3.177 1.999-4.9l.203-.963h-1.736V22.196a2.067 2.067 0 0 1-1.266 1.91 2.064 2.064 0 0 1-1.022.152l-.05-.008a2.19 2.19 0 0 1-.16-.025l-.043-.011a1.994 1.994 0 0 1-.16-.043l-.03-.01a2.074 2.074 0 0 1-.166-.063l-.015-.007a2.078 2.078 0 0 1-.172-.086l-.002-.001c-.178-.1-.34-.227-.482-.374l-5.948-1.452H9.139c-.028.05-.058.097-.086.147-.05.09-.096.18-.144.271a16.541 16.541 0 0 0-.82 1.8l-.015.04a16.537 16.537 0 0 0-.707 2.385 15.468 15.468 0 0 0 5.61 7.684c.076.055.155.104.232.157a15.431 15.431 0 0 0 3.294 1.759"/><path fill="#8B7460" d="M32.068 40.111a12.815 12.815 0 0 1-.064-1.241.455.455 0 0 0-.455-.456H12.45a.455.455 0 0 0-.455.456 12.76 12.76 0 0 1-.27 2.583c.276.147.555.29.84.424.19-.828.3-1.673.331-2.523l.002-.03h18.202l.002.03c.03.85.142 1.695.332 2.523.283-.135.563-.277.84-.424a12.64 12.64 0 0 1-.207-1.342"/></g></svg>