<svg xmlns="http://www.w3.org/2000/svg" viewBox="0 0 32 37"><g fill="none" fill-rule="nonzero"><path fill="#95BF46" d="M27.972 7.168a.35.35 0 0 0-.317-.295c-.132-.011-2.923-.218-2.923-.218s-1.939-1.924-2.151-2.137c-.213-.213-.629-.148-.79-.101l-1.085.335c-.648-1.863-1.79-3.575-3.8-3.575a3.01 3.01 0 0 0-.17.005C16.163.426 15.455.097 14.843.097c-4.683 0-6.92 5.855-7.622 8.83a2893 2893 0 0 0-3.278 1.016c-1.016.319-1.048.351-1.181 1.308-.1.725-2.758 21.278-2.758 21.278l20.71 3.88 11.22-2.427S27.998 7.35 27.973 7.168zm-8.41-2.062l-1.753.542.001-.377c0-1.159-.16-2.09-.418-2.83 1.035.13 1.725 1.309 2.17 2.665zm-3.456-2.435c.288.721.476 1.757.476 3.154 0 .072 0 .137-.002.203L12.962 7.15c.697-2.69 2.003-3.988 3.146-4.478zm-1.39-1.317c.201 0 .405.068.6.202-1.501.707-3.11 2.485-3.79 6.037l-2.86.886c.796-2.709 2.685-7.125 6.049-7.125z"/><path fill="#5E8E3E" d="M27.655 6.873c-.132-.011-2.923-.218-2.923-.218s-1.939-1.924-2.151-2.137a.531.531 0 0 0-.3-.138l-1.566 32.03 11.22-2.428S27.998 7.35 27.973 7.168a.35.35 0 0 0-.317-.295"/><path fill="#FFF" d="M16.905 13.073l-1.383 4.116s-1.213-.647-2.699-.647c-2.178 0-2.288 1.367-2.288 1.711 0 1.88 4.9 2.6 4.9 7.003 0 3.465-2.197 5.695-5.16 5.695-3.554 0-5.372-2.212-5.372-2.212l.952-3.145s1.868 1.604 3.445 1.604c1.03 0 1.45-.811 1.45-1.404 0-2.452-4.02-2.561-4.02-6.59 0-3.392 2.434-6.673 7.347-6.673 1.893 0 2.828.542 2.828.542"/></g></svg>