<svg xmlns="http://www.w3.org/2000/svg" viewBox="0 0 44 10"><g fill="#03363D" fill-rule="nonzero"><path d="M29.153 7.966a2.155 2.155 0 0 0 1.547-.604l.767.832a3.017 3.017 0 0 1-2.306.914c-1.875 0-3.086-1.25-3.086-2.94a2.875 2.875 0 0 1 2.918-2.94c1.862 0 2.918 1.423 2.823 3.397h-4.392a1.586 1.586 0 0 0 1.729 1.34zm1.34-2.28a1.41 1.41 0 0 0-1.483-1.332 1.513 1.513 0 0 0-1.59 1.327l3.073.005zM0 7.906l3.388-3.449H.078v-1.09h4.88V4.47L1.568 7.919h3.449v1.086H0zM9.052 7.966a2.155 2.155 0 0 0 1.548-.604l.767.832a3.017 3.017 0 0 1-2.306.914c-1.875 0-3.087-1.25-3.087-2.94a2.875 2.875 0 0 1 2.919-2.94c1.862 0 2.918 1.423 2.823 3.397H7.328a1.586 1.586 0 0 0 1.724 1.34zm1.34-2.28A1.41 1.41 0 0 0 8.91 4.358a1.513 1.513 0 0 0-1.582 1.323l3.065.005zM19.044 6.168a2.815 2.815 0 0 1 2.824-2.935c.722-.005 1.409.31 1.875.862V.75h1.198v8.242h-1.198v-.776a2.401 2.401 0 0 1-1.884.892 2.84 2.84 0 0 1-2.815-2.94zm4.763 0a1.785 1.785 0 1 0-3.569 0 1.785 1.785 0 0 0 3.57 0zM32.567 7.798l1.081-.582c.292.521.848.838 1.445.823.676 0 1.025-.349 1.025-.746 0-.396-.655-.551-1.366-.698-.961-.202-1.953-.517-1.953-1.681 0-.892.862-1.724 2.181-1.724a2.586 2.586 0 0 1 2.272 1.095l-1.004.586a1.457 1.457 0 0 0-1.263-.642c-.643 0-.97.314-.97.676 0 .363.517.518 1.332.699.927.202 1.974.508 1.974 1.68 0 .781-.677 1.829-2.28 1.82a2.638 2.638 0 0 1-2.474-1.306zM40.438 6.487l-.949 1.04v1.47h-1.198V.75h1.198v5.397l2.54-2.81h1.456l-2.202 2.418 2.254 3.237h-1.35zM15.484 3.233c-1.423 0-2.613.927-2.613 2.461v3.298h1.22V5.845a1.336 1.336 0 0 1 1.427-1.478c.905 0 1.354.556 1.354 1.478v3.147h1.232V5.694c0-1.534-1.198-2.461-2.62-2.461z"/></g></svg>