<svg xmlns="http://www.w3.org/2000/svg" viewBox="0 0 28 44"><g fill="#FF4F1F" fill-rule="nonzero"><path d="M19.671 13.919c2.515 0 4.61 2.093 4.61 4.604 0 2.512-2.095 4.605-4.61 4.605H8.043c-2.514 0-4.61-2.093-4.61-4.605 0-2.511 2.096-4.604 4.61-4.604H19.67zm0-2.93H8.043A7.508 7.508 0 0 0 .5 18.522a7.508 7.508 0 0 0 7.543 7.535H19.67a7.508 7.508 0 0 0 7.543-7.535c.105-4.186-3.352-7.535-7.543-7.535zM19.671 31.605c2.515 0 4.61 2.093 4.61 4.604 0 2.512-2.095 4.605-4.61 4.605h-4.923c-2.515 0-4.61-2.093-4.61-4.605 0-2.511 2.095-4.604 4.61-4.604h4.923zm0-2.93h-4.923a7.508 7.508 0 0 0-7.543 7.534 7.508 7.508 0 0 0 7.543 7.535h4.923a7.508 7.508 0 0 0 7.543-7.535c.105-4.186-3.352-7.535-7.543-7.535zM22.71 2.616c1.047 0 1.99.837 1.99 1.989a1.988 1.988 0 0 1-1.99 1.988h-.105c-1.048 0-1.781-.837-1.886-1.884 0-.523.21-1.046.524-1.465a2.07 2.07 0 0 1 1.467-.628zm0-2.616c-2.62 0-4.61 2.198-4.505 4.71.105 2.302 1.99 4.185 4.295 4.29h.21a4.47 4.47 0 0 0 4.504-4.5A4.47 4.47 0 0 0 22.71 0z"/></g></svg>