<svg xmlns="http://www.w3.org/2000/svg" viewBox="0 0 35 38"><g fill="none" fill-rule="nonzero"><path fill="#F9AB00" d="M34.498 33.243c.015 2.61-2.1 4.734-4.72 4.748a4.562 4.562 0 0 1-.585-.033 4.85 4.85 0 0 1-4.154-4.908V4.94A4.852 4.852 0 0 1 29.201.033c2.603-.303 4.961 1.55 5.266 4.14.022.191.033.382.031.574v28.496z"/><path fill="#E37400" d="M4.73 28.585c2.613 0 4.73 2.107 4.73 4.707 0 2.6-2.117 4.706-4.73 4.706-2.612 0-4.73-2.107-4.73-4.706 0-2.6 2.118-4.707 4.73-4.707zm12.446-14.263c-2.625.143-4.661 2.333-4.6 4.948v12.642c0 3.43 1.518 5.513 3.74 5.957 2.566.517 5.066-1.132 5.586-3.685.064-.312.096-.63.094-.948V19.052c.005-2.61-2.116-4.727-4.738-4.732-.027 0-.055 0-.082.002z"/></g></svg>