<svg xmlns="http://www.w3.org/2000/svg" viewBox="0 0 44 27"><g fill="none" fill-rule="nonzero"><path fill="#9B5C8F" d="M4.084 0h35.815C42.165 0 44 1.849 44 4.133V17.91c0 2.284-1.835 4.133-4.101 4.133H27.055l1.763 4.35-7.753-4.35H4.1c-2.266 0-4.1-1.849-4.1-4.133V4.133C-.019 1.867 1.816 0 4.083 0z"/><path fill="#FFF" d="M2.506 3.767c.25-.342.626-.523 1.126-.559.913-.072 1.431.36 1.557 1.298.554 3.767 1.162 6.958 1.806 9.571l3.917-7.516c.358-.685.805-1.046 1.342-1.082.787-.054 1.27.45 1.466 1.514.447 2.398 1.02 4.434 1.7 6.165.465-4.578 1.252-7.877 2.36-9.914.269-.504.662-.757 1.18-.793.412-.036.788.09 1.128.36.34.271.518.614.554 1.028.018.325-.036.595-.179.865-.697 1.298-1.27 3.48-1.735 6.507-.447 2.938-.608 5.227-.5 6.868.035.45-.036.847-.215 1.19-.215.396-.537.612-.948.648-.465.036-.948-.18-1.413-.667-1.663-1.712-2.987-4.272-3.953-7.678a338.312 338.312 0 0 0-2.576 5.19c-1.055 2.037-1.95 3.083-2.7 3.137-.483.036-.895-.379-1.252-1.244-.912-2.361-1.896-6.921-2.951-13.68-.072-.469.035-.884.286-1.208zm38.437 2.83c-.644-1.136-1.592-1.82-2.862-2.091a4.664 4.664 0 0 0-.966-.108c-1.717 0-3.112.901-4.203 2.704-.93 1.532-1.395 3.226-1.395 5.082 0 1.388.286 2.578.859 3.57.643 1.135 1.591 1.82 2.861 2.09.34.072.662.108.966.108 1.735 0 3.13-.9 4.203-2.703.93-1.55 1.396-3.245 1.396-5.101.017-1.406-.287-2.578-.859-3.551zm-2.254 4.993c-.25 1.19-.697 2.072-1.36 2.667-.518.469-1 .667-1.448.577-.429-.09-.787-.469-1.055-1.172a4.6 4.6 0 0 1-.322-1.64c0-.45.036-.901.125-1.315.161-.74.465-1.46.948-2.145.59-.884 1.216-1.244 1.86-1.118.43.09.787.469 1.056 1.172.214.558.322 1.117.322 1.64 0 .469-.036.919-.126 1.334zm-8.943-4.993c-.644-1.136-1.61-1.82-2.861-2.091a4.662 4.662 0 0 0-.966-.108c-1.717 0-3.113.901-4.204 2.704-.93 1.532-1.395 3.226-1.395 5.082 0 1.388.286 2.578.859 3.57.644 1.135 1.592 1.82 2.862 2.09.34.072.661.108.965.108 1.735 0 3.13-.9 4.204-2.703.93-1.55 1.395-3.245 1.395-5.101 0-1.406-.286-2.578-.859-3.551zm-2.271 4.993c-.25 1.19-.698 2.072-1.36 2.667-.518.469-1.001.667-1.449.577-.429-.09-.786-.469-1.055-1.172a4.608 4.608 0 0 1-.322-1.64c0-.45.036-.901.126-1.315a5.85 5.85 0 0 1 .948-2.145c.59-.884 1.216-1.244 1.86-1.118.429.09.787.469 1.055 1.172a4.6 4.6 0 0 1 .322 1.64c.018.469-.036.919-.125 1.334z"/></g></svg>