<svg xmlns="http://www.w3.org/2000/svg" viewBox="0 0 38 38"><g fill="none" fill-rule="nonzero"><path fill="#8AB4F8" d="M22.311 36.554l-6.594-6.602 14.165-14.31 6.715 6.715z"/><path fill="#4285F4" d="M22.359 8.121l-6.715-6.715L1.407 15.643a4.744 4.744 0 0 0 0 6.714l14.237 14.237 6.587-6.617L11.472 19.01 22.36 8.121z"/><path fill="#8AB4F8" d="M36.596 15.643L22.359 1.406a4.749 4.749 0 0 0-6.716 6.714l14.245 14.237a4.747 4.747 0 0 0 6.714 0 4.747 4.747 0 0 0 0-6.714h-.006z"/><circle cx="18.949" cy="33.293" r="4.706" fill="#246FDB"/></g></svg>