<?xml version="1.0" encoding="utf-8"?>
<!-- Generator: Adobe Illustrator 19.0.0, SVG Export Plug-In . SVG Version: 6.00 Build 0)  -->
<svg version="1.1" id="Layer_1" xmlns="http://www.w3.org/2000/svg" xmlns:xlink="http://www.w3.org/1999/xlink" x="0px" y="0px"
	 width="85.7px" height="86.4px" viewBox="-1192 715.2 85.7 86.4" style="enable-background:new -1192 715.2 85.7 86.4;"
	 xml:space="preserve">
<style type="text/css">
	.st0{fill:#4E959D;stroke:#FFFFFF;stroke-miterlimit:10;}
	.st1{fill:none;stroke:#B4B6B8;stroke-width:2;stroke-miterlimit:10;}
</style>
<g id="Layer_2">
	<g>
		<path class="st0" d="M-1142.7,776.7L-1142.7,776.7c-5.6,0-10.3-4.6-10.3-10.2v-0.9c0-5.6,4.6-10.2,10.2-10.2l0,0
			c5.6,0,10.2,4.6,10.2,10.2v0.9C-1132.5,772.1-1137.1,776.7-1142.7,776.7z"/>
		<path class="st1" d="M-1142.5,788.4L-1142.5,788.4c-12.6,0-22.9-10.3-22.9-22.9l0,0c0-12.6,10.3-22.9,22.9-22.9l0,0
			c12.6,0,22.9,10.3,22.9,22.9l0,0C-1119.7,778.1-1130,788.4-1142.5,788.4z"/>
		<path class="st1" d="M-1142.5,800.6L-1142.5,800.6c-19.3,0-35.2-15.8-35.2-35.2l0,0c0-19.3,15.8-35.2,35.2-35.2l0,0
			c19.3,0,35.2,15.8,35.2,35.2l0,0C-1107.4,784.8-1123.2,800.6-1142.5,800.6z"/>
		<path class="st1" d="M-1143.8,716.2c0,0-42.5-1.2-47.2,48.4"/>
	</g>
</g>
</svg>
