<?xml version="1.0" encoding="utf-8"?>
<!-- Generator: Adobe Illustrator 19.0.0, SVG Export Plug-In . SVG Version: 6.00 Build 0)  -->
<svg version="1.1" id="Layer_1" xmlns="http://www.w3.org/2000/svg" xmlns:xlink="http://www.w3.org/1999/xlink" x="0px" y="0px"
	 width="86.7px" height="98.3px" viewBox="-596 351.7 86.7 98.3" style="enable-background:new -596 351.7 86.7 98.3;"
	 xml:space="preserve">
<style type="text/css">
	.st0{fill:url(#SVGID_1_);}
	.st1{fill:none;stroke:#B4B6B8;stroke-width:2;stroke-miterlimit:10;}
</style>
<g>
	<linearGradient id="SVGID_1_" gradientUnits="userSpaceOnUse" x1="-555.9944" y1="402.9" x2="-535.4944" y2="402.9">
		<stop  offset="0" style="stop-color:#AE0837"/>
		<stop  offset="1" style="stop-color:#DB4453"/>
	</linearGradient>
	<path class="st0" d="M-545.7,413.6L-545.7,413.6c-5.6,0-10.3-4.6-10.3-10.2v-0.9c0-5.6,4.6-10.3,10.3-10.3l0,0
		c5.6,0,10.2,4.6,10.2,10.2v0.9C-535.5,409-540.1,413.6-545.7,413.6z"/>
	<path class="st1" d="M-545.5,425.3L-545.5,425.3c-12.6,0-22.9-10.3-22.9-22.9l0,0c0-12.6,10.3-22.9,22.9-22.9l0,0
		c12.6,0,22.9,10.3,22.9,22.9l0,0C-522.7,415-532.9,425.3-545.5,425.3z"/>
	<path class="st1" d="M-545.5,437.5L-545.5,437.5c-19.3,0-35.2-15.8-35.2-35.2l0,0c0-19.3,15.8-35.1,35.2-35.1l0,0
		c19.3,0,35.2,15.8,35.2,35.2l0,0C-510.4,421.7-526.2,437.5-545.5,437.5z"/>
	<path class="st1" d="M-595,400.9c0,0-2,42.4,47.5,48.1"/>
</g>
</svg>
