<?xml version="1.0" encoding="utf-8"?>
<!-- Generator: Adobe Illustrator 19.0.0, SVG Export Plug-In . SVG Version: 6.00 Build 0)  -->
<svg version="1.1" id="Layer_1" xmlns="http://www.w3.org/2000/svg" xmlns:xlink="http://www.w3.org/1999/xlink" x="0px" y="0px"
	 width="86.7px" height="98.3px" viewBox="-596 351.7 86.7 98.3" style="enable-background:new -596 351.7 86.7 98.3;"
	 xml:space="preserve">
<style type="text/css">
	.st0{fill:url(#SVGID_1_);}
	.st1{fill:none;stroke:#B4B6B8;stroke-width:2;stroke-miterlimit:10;}
</style>
<g>
	<g>
		<linearGradient id="SVGID_1_" gradientUnits="userSpaceOnUse" x1="-556.404" y1="402.8635" x2="-535.988" y2="402.8635">
			<stop  offset="0" style="stop-color:#B9FF7F"/>
			<stop  offset="1" style="stop-color:#00A87F"/>
		</linearGradient>
		<path class="st0" d="M-546,413.5L-546,413.5c-5.6,0.1-10.4-4.5-10.4-10.1l0-0.9c-0.1-5.6,4.5-10.3,10.1-10.3l0,0
			c5.6-0.1,10.3,4.5,10.3,10.1l0,0.9C-535.8,408.8-540.4,413.4-546,413.5z"/>
	</g>
	<path class="st1" d="M-545.6,425.2L-545.6,425.2c-12.6,0.2-23-10-23.2-22.6l0,0c-0.2-12.6,10-23,22.6-23.2l0,0
		c12.6-0.2,23,10,23.2,22.6l0,0C-522.9,414.6-533.1,425-545.6,425.2z"/>
	<path class="st1" d="M-545.4,437.4L-545.4,437.4c-19.3,0.3-35.4-15.3-35.7-34.7l0,0c-0.3-19.3,15.3-35.4,34.7-35.7l0,0
		c19.3-0.3,35.4,15.3,35.7,34.7l0,0C-510.5,421.1-526.1,437.1-545.4,437.4z"/>
	<path class="st1" d="M-547.9,353c0,0-42.5-0.6-46.5,49"/>
</g>
</svg>
