<?xml version="1.0" encoding="utf-8"?>
<!-- Generator: Adobe Illustrator 21.0.0, SVG Export Plug-In . SVG Version: 6.00 Build 0)  -->
<svg version="1.1" id="Layer_1" xmlns="http://www.w3.org/2000/svg" xmlns:xlink="http://www.w3.org/1999/xlink" x="0px" y="0px"
	 width="100px" height="100px" viewBox="0 0 100 100" enable-background="new 0 0 100 100" xml:space="preserve">
<g>
	<path fill="#00AFF0" d="M97.1,60.6c0.7-3.3,1.1-6.6,1.1-10.1c0-26-21.3-47-47.7-47c-2.8,0-5.5,0.2-8.2,0.7C38.1,1.5,33.1,0,27.7,0
		C12.4,0,0,12.2,0,27.3c0,5,1.4,9.7,3.8,13.8c-0.6,3.1-1,6.2-1,9.5c0,26,21.3,46.2,47.7,46.2c3,0,5.9-0.3,8.7-0.8
		c3.9,2.1,8.3,4,13.1,4c15.3,0,27.7-12.2,27.7-27.3C100,68.4,99,64.3,97.1,60.6z"/>
	<path fill="#FFFFFF" d="M72.3,69.7c-1.8,2.6-4.5,4.7-8.1,6.1c-3.5,1.5-7.7,2.2-12.6,2.2c-5.8,0-10.6-1-14.4-3
		c-2.7-1.5-4.9-3.4-6.5-5.8c-1.7-2.4-2.5-4.8-2.5-7.1c0-1.3,0.5-2.5,1.5-3.4c1-1,2.3-1.4,3.8-1.4c1.3,0,2.3,0.4,3.2,1.1
		c0.9,0.7,1.6,1.8,2.2,3.3c0.8,1.7,1.6,3.2,2.4,4.3c0.9,1.2,2.1,2.1,3.7,2.9c1.6,0.7,3.7,1.1,6.2,1.1c3.5,0,6.4-0.8,8.6-2.3
		c2.2-1.5,3.3-3.4,3.3-5.7c0-1.8-0.6-3.3-1.8-4.4c-1.2-1.1-2.7-2-4.6-2.6c-1.9-0.6-4.4-1.2-7.6-1.9c-4.2-0.9-7.8-2-10.6-3.2
		c-2.9-1.2-5.1-2.9-6.8-5c-1.7-2.1-2.5-4.7-2.5-7.9c0-3,0.9-5.6,2.7-8c1.8-2.3,4.3-4.1,7.7-5.4c3.4-1.2,7.3-1.9,11.8-1.9
		c3.6,0,6.8,0.4,9.4,1.2c2.6,0.8,4.8,1.9,6.6,3.3c1.7,1.4,3,2.8,3.8,4.3c0.8,1.5,1.2,3,1.2,4.4c0,1.3-0.5,2.5-1.5,3.5
		c-1,1-2.3,1.6-3.8,1.6c-1.4,0-2.4-0.3-3.1-0.9c-0.7-0.6-1.5-1.7-2.3-3.1c-1.1-2-2.4-3.6-3.9-4.8c-1.5-1.1-3.9-1.7-7.2-1.7
		c-3.1,0-5.6,0.6-7.5,1.9c-1.9,1.2-2.8,2.7-2.8,4.5c0,1.1,0.3,2,1,2.8c0.6,0.8,1.5,1.5,2.7,2c1.1,0.6,2.3,1,3.4,1.3
		c1.2,0.3,3.1,0.8,5.7,1.4c3.3,0.7,6.3,1.5,9,2.4c2.7,0.9,5,1.9,6.9,3.1c1.9,1.2,3.4,2.8,4.4,4.7c1.1,1.9,1.6,4.2,1.6,6.9
		C75,64.1,74.1,67.1,72.3,69.7z"/>
</g>
</svg>
