<?xml version="1.0" encoding="utf-8"?>
<!-- Generator: Adobe Illustrator 19.0.0, SVG Export Plug-In . SVG Version: 6.00 Build 0)  -->
<svg version="1.1" id="Layer_1" xmlns="http://www.w3.org/2000/svg" xmlns:xlink="http://www.w3.org/1999/xlink" x="0px" y="0px"
	 width="100px" height="100px" viewBox="-589 351 100 100" style="enable-background:new -589 351 100 100;" xml:space="preserve">
<style type="text/css">
	.st0{fill:#FFFFFF;}
	.st1{fill:#55CD6C;}
	.st2{fill:#FEFEFE;}
</style>
<path class="st0" d="M-589,451l6.9-25c-4.5-7.8-6.9-16.4-6.9-25.3c0-27.3,22.4-49.7,49.8-49.7c27.4,0,50.2,22.4,50.2,49.7
	c0,27.3-22.8,50.3-50.2,50.3c-8.6,0-16.9-2.8-24.3-6.9L-589,451z"/>
<path class="st1" d="M-562.1,435.1l1.6,0.9c6.4,4,13.8,6.4,21.6,6.4c22.6,0,41.4-18.8,41.4-41.7c0-22.9-18.8-41-41.6-41
	c-22.8,0-41.3,18.2-41.3,41c0,7.9,2.2,15.7,6.4,22.2l1,1.6l-4,14.5L-562.1,435.1z"/>
<path class="st2" d="M-552.4,377.6l-3.3-0.2c-1,0-2.1,0.3-2.8,1c-1.6,1.4-4.1,4-4.8,7.4c-1.2,5.2,0.7,11.4,5.2,17.6
	c4.5,6.2,13.1,16.2,28.2,20.5c4.8,1.4,8.6,0.5,11.7-1.4c2.4-1.6,4-4,4.5-6.6l0.5-2.4c0.2-0.7-0.2-1.6-0.9-1.9l-10.9-5
	c-0.7-0.3-1.6-0.2-2.1,0.5l-4.3,5.5c-0.3,0.3-0.9,0.5-1.4,0.3c-2.9-1-12.8-5.2-18.1-15.5c-0.2-0.5-0.2-1,0.2-1.4l4.1-4.7
	c0.3-0.5,0.5-1.2,0.3-1.7l-5-11.2C-551.2,378.1-551.8,377.6-552.4,377.6"/>
</svg>
